<svg data-noselect="" viewBox="0 0 800 600" width="1600" height="1200" preserveAspectRatio="none" version="1.1" xmlns="http://www.w3.org/2000/svg" xmlns:xlink="http://www.w3.org/1999/xlink" class="svg-canvas"><defs></defs> <g id="background" data-noselect=""><rect fill="#000000" width="800" height="600" data-noselect=""></rect> <!----></g> <g id="shape_s85VjyZiEj" transform="translate(333.26078725427,222.62493690055499) rotate(0,80,77.375063099445) scale(1,1)" filter="" style="opacity: 1;"><g><svg version="1.1" id="图层_1" xmlns="http://www.w3.org/2000/svg" xmlns:xlink="http://www.w3.org/1999/xlink" x="0px" y="0px" viewBox="0 0 198.1 191.6" style="enable-background:new 0 0 198.1 191.6;" xml:space="preserve" width="160" height="154.75012619889" class="style-removed" preserveAspectRatio="none" data-parent="shape_s85VjyZiEj">

<g>
	<path d="M144.5,123.6h-25.1H94.8l6.8,14.6c-35.4,26.5-69.6,36.3-84,23.2c-6.2-5.6-10-20.6-4.7-37.8
		c0.3-0.8,0.5-1.7,0.8-2.5c-0.5,0.8-0.9,1.7-1.3,2.5c-13.7,26.2-16.7,48.8-5.7,60.3c16.5,17.3,59.4,4.3,102.8-29l5.1,10.9l30.9-42.2
		H144.5z" fill="#4F83CC" stroke-width="0"></path>
	<polygon points="89.2,31.5 92.4,32.8 95.6,31.4 94.3,34.6 95.7,37.8 92.5,36.5 89.3,37.9 90.6,34.7 	" fill="#4F83CC" stroke-width="0"></polygon>
	<path d="M191.4,7.7c-14.2-14.9-51.5-7.7-86.1,16l-1-4l-2.5,4.4l-4.9,1.2l2.7,1.6l0.7,0.4l0.7,0.4l0.2,0.1l0.2,0.6
		l1.1,4.3l2.5-4.4l4.9-1.2l-3.1-1.8l-0.1-0.1C134.6,9.4,161.5,2,172.5,13.6c6.6,6.9,7.1,18.7,2.5,32.9l-5-4.2l-8.2,21.3h5.9
		c0,0,0,0,0,0h20.2c0,0,0,0,0,0h7.1l-5.1-4.4C199.9,36.8,201.1,18,191.4,7.7z" fill="#4F83CC" stroke-width="0"></path>
</g>
</svg></g></g><g id="shape_ju4iwqpUZw" transform="translate(229.5,137.999999999995) rotate(0,170.5,162) scale(1,1)" filter="" style="opacity: 1;"><g><svg xmlns="http://www.w3.org/2000/svg" version="1.1" xmlns:xlink="http://www.w3.org/1999/xlink" width="431" height="324" viewBox="0 0 431 324" data-parent="shape_ju4iwqpUZw"><g data-width="250.33499999999998" transform="translate(45.33250000000001, 0)"><path d="M2.92-30.02L12.24-30.02L19.71-6.57L27.58-30.02L36.90-30.02L36.90 0L30.82 0L30.82-22.50L22.99 0L16.43 0L9-22.50L9 0L2.92 0L2.92-30.02Z" transform="translate(0 178) " fill="#4F83CC" stroke="#4F83CC" stroke-width="0.075" data-glyph-w="40.005" data-glyph-h="45" data-glyph-ascender="38.655" data-glyph-descender="-6.345"></path><path d="M3.06 0L3.06-30.02L15.79-30.02Q20.56-30.02 23.18-29.07L23.18-29.07Q27.99-27.31 29.61-22.63L29.61-22.63Q30.82-19.04 30.82-14.94L30.82-14.94Q30.82-10.89 29.65-7.29L29.65-7.29Q28.48-3.60 25.79-1.84L25.79-1.84Q24.07-0.77 22.03-0.38Q19.98 0 15.79 0L15.79 0L3.06 0ZM15.79-24.66L9.45-24.66L9.45-5.35L15.79-5.35Q19.98-5.35 21.60-7.20L21.60-7.20Q22.59-8.37 23.20-10.48Q23.80-12.60 23.80-14.98L23.80-14.98Q23.80-17.64 23.09-19.84Q22.36-22.05 21.20-23.13L21.20-23.13Q19.48-24.66 15.79-24.66L15.79-24.66Z" transform="translate(40.005 178) " fill="#4F83CC" stroke="#4F83CC" stroke-width="0.075" data-glyph-w="32.22" data-glyph-h="45" data-glyph-ascender="38.655" data-glyph-descender="-6.345"></path><path d="M0.58-30.02L7.20-30.02L13.95-7.42L20.25-30.02L27.36-30.02L33.66-7.42L40.41-30.02L46.98-30.02L37.30 0L30.02 0L23.80-21.64L17.59 0L10.30 0L0.58-30.02Z" transform="translate(72.225 178) " fill="#4F83CC" stroke="#4F83CC" stroke-width="0.075" data-glyph-w="47.565" data-glyph-h="45" data-glyph-ascender="38.655" data-glyph-descender="-6.345"></path><path d="M14.58-11.38L9.45-11.38L9.45 0L3.06 0L3.06-30.02L17.73-30.02Q24.03-30.02 26.50-28.39L26.50-28.39Q28.21-27.31 29.14-25.54Q30.06-23.76 30.06-21.64L30.06-21.64Q30.06-17.37 27.90-15.03L27.90-15.03Q26.55-13.63 24.34-12.91L24.34-12.91Q26.10-12.29 27-11.59Q27.90-10.89 28.62-9.54L28.62-9.54Q29.16-8.46 29.41-7.47Q29.65-6.48 29.79-4.54L29.79-4.54Q30.06-1.30 30.51 0L30.51 0L23.36 0Q23.04-1.03 22.68-4.27L22.68-4.27Q22.45-6.88 21.76-8.28Q21.06-9.67 19.66-10.48L19.66-10.48Q17.91-11.43 14.58-11.38L14.58-11.38ZM9.45-24.66L9.45-16.74L18.40-16.74Q20.65-16.74 21.60-17.41L21.60-17.41Q23.04-18.40 23.04-20.88L23.04-20.88Q23.04-23.63 20.88-24.39L20.88-24.39Q20.11-24.66 18.40-24.66L18.40-24.66L9.45-24.66Z" transform="translate(119.78999999999999 178) " fill="#4F83CC" stroke="#4F83CC" stroke-width="0.075" data-glyph-w="32.13" data-glyph-h="45" data-glyph-ascender="38.655" data-glyph-descender="-6.345"></path><path d="M9.45 0L3.06 0L3.06-30.02L9.45-30.02L9.45 0Z" transform="translate(151.92 178) " fill="#4F83CC" stroke="#4F83CC" stroke-width="0.075" data-glyph-w="12.465" data-glyph-h="45" data-glyph-ascender="38.655" data-glyph-descender="-6.345"></path><path d="M9.72 0L9.72-24.66L0.18-24.66L0.18-30.02L26.05-30.02L26.05-24.66L16.11-24.66L16.11 0L9.72 0Z" transform="translate(164.385 178) " fill="#4F83CC" stroke="#4F83CC" stroke-width="0.075" data-glyph-w="26.28" data-glyph-h="45" data-glyph-ascender="38.655" data-glyph-descender="-6.345"></path><path d="M14.80-30.02L25.56-30.02L25.56-24.66L17.23-24.66Q13.99-24.66 12.51-24.21Q11.03-23.76 10.04-22.45L10.04-22.45Q9.36-21.55 9.11-20.65Q8.87-19.75 8.69-17.59L8.69-17.59L25.56-17.59L25.56-12.24L8.69-12.24Q9.04-8.37 10.98-6.86Q12.91-5.35 17.55-5.35L17.55-5.35L25.56-5.35L25.56 0L17.23 0Q13.86 0 11.29-0.40L11.29-0.40Q7.25-1.08 4.86-3.96L4.86-3.96Q1.44-8.10 1.44-15.16L1.44-15.16Q1.44-22.99 6.25-27.36L6.25-27.36Q7.92-28.84 9.79-29.43Q11.65-30.02 14.80-30.02L14.80-30.02Z" transform="translate(190.665 178) " fill="#4F83CC" stroke="#4F83CC" stroke-width="0.075" data-glyph-w="27.54" data-glyph-h="45" data-glyph-ascender="38.655" data-glyph-descender="-6.345"></path><path d="M14.58-11.38L9.45-11.38L9.45 0L3.06 0L3.06-30.02L17.73-30.02Q24.03-30.02 26.50-28.39L26.50-28.39Q28.21-27.31 29.14-25.54Q30.06-23.76 30.06-21.64L30.06-21.64Q30.06-17.37 27.90-15.03L27.90-15.03Q26.55-13.63 24.34-12.91L24.34-12.91Q26.10-12.29 27-11.59Q27.90-10.89 28.62-9.54L28.62-9.54Q29.16-8.46 29.41-7.47Q29.65-6.48 29.79-4.54L29.79-4.54Q30.06-1.30 30.51 0L30.51 0L23.36 0Q23.04-1.03 22.68-4.27L22.68-4.27Q22.45-6.88 21.76-8.28Q21.06-9.67 19.66-10.48L19.66-10.48Q17.91-11.43 14.58-11.38L14.58-11.38ZM9.45-24.66L9.45-16.74L18.40-16.74Q20.65-16.74 21.60-17.41L21.60-17.41Q23.04-18.40 23.04-20.88L23.04-20.88Q23.04-23.63 20.88-24.39L20.88-24.39Q20.11-24.66 18.40-24.66L18.40-24.66L9.45-24.66Z" transform="translate(218.20499999999998 178) " fill="#4F83CC" stroke="#4F83CC" stroke-width="0.075" data-glyph-w="32.13" data-glyph-h="45" data-glyph-ascender="38.655" data-glyph-descender="-6.345"></path></g></svg></g></g></svg>